<svg xmlns="http://www.w3.org/2000/svg" id="symbol" width="130" height="194" viewBox="0 0 130 194">
	<style>
		.line {fill: rgba(253, 59, 59, 1);}
		.solid {fill: rgba(253, 59, 59, 1);}
	</style>
	<path d="M87.8 127.3c5 5.1 10.5 10.6 16.5 16.7 -12.6 1.9-24.1 6.7-34.3 14.4v-0.2c0-7.8 0-15.6 0-23.4 4.4-3.9 9.5-6.3 15.2-7.2C86 127.4 86.9 127.3 87.8 127.3M88.2 126.2c-1 0.1-2.1 0.1-3.1 0.3 -6 0.9-11.4 3.5-15.9 7.6 -0.1 0.1-0.1 0.1-0.1 0.3 0 7.9 0 15.8 0 23.7v2.3c11-8.7 23.6-14 37.4-15.7C100.3 138.5 94.3 132.3 88.2 126.2L88.2 126.2z" class="line"/>
	<path d="M86.2 82.9c0.9 3.2 2.1 6.2 3.7 9.1H77.3L86.2 82.9M86.8 80.9l-11.9 12h16.8C89.4 89.2 87.8 85.2 86.8 80.9L86.8 80.9z" class="line"/>
	<path d="M70 2.1c16.8 13.7 36.3 21.8 57.8 24.2 -0.4 0.4-0.8 0.9-1.3 1.3l-1 1c-4.3 4.4-8.7 8.8-13 13.2 -7.5-0.3-14.8-1.8-21.6-4.5 -7.7-3-14.7-7.5-20.8-13.3 0-7.2 0-14.4 0-21.6L70 2.1M69 0v2.4c0 7.4 0 14.7 0 22.1 6.3 6.1 13.5 10.7 21.5 13.8 7 2.8 14.5 4.3 22.2 4.5 0.1 0 0.2 0 0.3-0.1 4.7-4.8 9.5-9.6 14.2-14.4 0.9-0.9 1.8-1.8 2.8-2.8C107.1 23.4 86.6 14.8 69 0L69 0z" class="line"/>
	<path d="M113.6 153.3c4.5 4.5 9 9.1 13.5 13.6l0.7 0.7c-21.5 2.4-40.9 10.5-57.8 24.2v-0.4c0-6.6 0-13.2 0-19.8 8.8-8.6 19.4-14.3 31.4-16.9C105.4 153.9 109.5 153.4 113.6 153.3M113.9 152.3c-4.3 0-8.6 0.5-12.7 1.4 -12.3 2.7-23.1 8.6-32.2 17.4 0 6.8 0 13.5 0 20.3V194c17.7-14.9 38.1-23.4 61-25.5l-0.9-0.9c-5-5.1-10-10.1-15-15.2L113.9 152.3 113.9 152.3z" class="line"/>
	<path d="M43.8 83l8.9 9H39.9c0.7-1.4 1.5-2.9 2.2-4.4C42.8 86.1 43.3 84.6 43.8 83M43.2 81c-0.5 2.3-1.2 4.3-2 6.1 -0.8 1.8-1.8 3.6-2.7 5.4 -0.1 0.2-0.2 0.3-0.2 0.5h16.7L43.2 81 43.2 81z" class="line"/>
	<path d="M19.6 58.3c5.2 5.2 10.3 10.4 15.5 15.7 -0.3 5.2-1.8 9.9-4.5 14.1 -0.7 1.1-1.6 2.2-2.4 3.3l-0.5 0.6c-5.3 0-10.6 0-15.9 0l-5.9 0C13.1 81.9 17.8 70.6 19.6 58.3M18.9 56.2c-1.7 13.6-6.8 25.9-15.1 36.8l7.9 0c5.5 0 10.9 0 16.4 0l0.8-1c0.9-1.1 1.8-2.2 2.5-3.4 2.8-4.4 4.4-9.5 4.7-15C30.4 67.7 24.6 62 18.9 56.2L18.9 56.2z" class="line"/>
	<path d="M91.7 101.1c-2.3 3.7-3.9 7.7-4.9 11.9l-11.7-11.8H91.7z" class="solid"/>
	<path d="M104.9 131.6c-3.6-3.6-7.2-7.3-10.8-10.9 -0.2-0.2-0.2-0.3-0.2-0.6 0.4-6.7 2.8-12.9 7.2-18.2 0.6-0.7 1-0.9 1.8-0.9v-1.2l0 0 0 1.2c4.2 0 8.3 0 12.5 0l10.8 0c-8.4 10.9-13.3 23-15.1 36.8L104.9 131.6z" class="solid"/>
	<path d="M61 59.7c-4.7 4.3-10.1 6.9-16.2 7.8 -0.9 0.1-1.9 0.2-3 0.3 -5.7-5.8-11.5-11.6-17.2-17.4 13.5-1.8 25.7-6.9 36.4-15.2v1.9C61 44.6 61 52.2 61 59.7z" class="solid"/>
	<path d="M43.2 113.1c-1-4.3-2.6-8.3-4.9-12h16.8L43.2 113.1z" class="solid"/>
	<path d="M61 2.5c0 7.3 0 14.6-0.1 22 -7.1 6.8-15.3 11.8-24.4 14.9 -5.6 1.9-11.3 3-17 3.3 -0.3 0-0.6 0.1-0.9 0.1 -0.6 0.1-1.3 0.1-1.6 0 -0.3-0.1-0.7-0.6-1-1 -0.2-0.3-0.4-0.5-0.7-0.7L0 25.6C22.9 23.5 43.4 14.9 61 0V2.5z" class="solid"/>
	<path d="M7.8 160.6c3.1-3.1 6.2-6.2 9.3-9.3 0 0 0.1-0.1 0.2-0.1 8.1 0.2 15.9 1.8 23.3 4.9 7.5 3.1 14.4 7.6 20.4 13.4 0 6.9 0 13.9 0 20.8v3.6C43.4 179.1 22.9 170.6 0 168.5L7.8 160.6z" class="solid"/>
</svg>