<?xml version="1.0" encoding="utf-8"?>
<!-- Generator: Adobe Illustrator 16.0.4, SVG Export Plug-In . SVG Version: 6.00 Build 0)  -->
<!DOCTYPE svg PUBLIC "-//W3C//DTD SVG 1.1//EN" "http://www.w3.org/Graphics/SVG/1.1/DTD/svg11.dtd">
<svg version="1.1" id="Layer_1" xmlns="http://www.w3.org/2000/svg" xmlns:xlink="http://www.w3.org/1999/xlink" x="0px" y="0px"
	 width="130px" height="194px" viewBox="0 0 130 194" enable-background="new 0 0 130 194" xml:space="preserve">
<g>
	<g>
		<g>
			<path fill="#FD3B3B" d="M87.805,127.264c5.036,5.073,10.454,10.551,16.512,16.689c-12.578,1.854-24.102,6.68-34.31,14.372v-0.224
				c0-7.805,0-15.613-0.011-23.416c4.402-3.885,9.52-6.295,15.212-7.166C86.041,127.395,86.936,127.322,87.805,127.264
				 M88.191,126.236c-1.047,0.065-2.115,0.142-3.133,0.295c-5.984,0.916-11.354,3.477-15.949,7.604
				c-0.109,0.097-0.113,0.103-0.113,0.302c0.011,7.886,0.011,15.777,0.011,23.664v2.262c11-8.738,23.57-14.006,37.429-15.687
				C100.307,138.462,94.256,132.342,88.191,126.236L88.191,126.236z"/>
		</g>
		<g>
			<path fill="#FD3B3B" d="M86.24,82.851c0.876,3.161,2.127,6.195,3.734,9.058H77.29L86.24,82.851 M86.773,80.888l-11.877,12.02
				h16.83C89.416,89.182,87.758,85.156,86.773,80.888L86.773,80.888z"/>
		</g>
		<g>
			<path fill="#FD3B3B" d="M70.007,2.126c16.83,13.679,36.259,21.814,57.802,24.206c-0.426,0.427-0.849,0.853-1.27,1.279
				l-1.006,1.017c-4.346,4.387-8.694,8.779-13.034,13.189c-7.505-0.256-14.782-1.756-21.636-4.459
				c-7.678-3.033-14.688-7.523-20.838-13.348c-0.02-7.213-0.02-14.424-0.02-21.635L70.007,2.126 M69.007,0v2.374
				c0,7.354,0,14.708,0.021,22.065c6.33,6.068,13.527,10.711,21.47,13.849c7.032,2.774,14.509,4.302,22.222,4.537
				c0.137-0.025,0.199-0.004,0.322-0.131c4.727-4.804,9.473-9.595,14.21-14.379c0.905-0.917,1.817-1.828,2.75-2.764
				C107.1,23.417,86.604,14.833,69.007,0L69.007,0z"/>
		</g>
		<g>
			<path fill="#FD3B3B" d="M113.6,153.348c4.51,4.533,9.008,9.08,13.506,13.627l0.693,0.702
				c-21.479,2.355-40.902,10.489-57.792,24.199v-0.431c0-6.577,0-13.154,0.019-19.831c8.838-8.576,19.397-14.255,31.393-16.88
				C105.396,153.864,109.494,153.398,113.6,153.348 M113.934,152.344c-4.291,0.029-8.57,0.506-12.729,1.414
				c-12.315,2.695-23.144,8.562-32.177,17.434c-0.021,6.822-0.021,13.539-0.021,20.256V194
				c17.66-14.863,38.146-23.445,60.974-25.538l-0.924-0.937c-5.002-5.058-10.005-10.116-15.021-15.158L113.934,152.344
				L113.934,152.344z"/>
		</g>
		<g>
			<path fill="#FD3B3B" d="M43.762,82.979l8.854,8.955H39.941c0.748-1.428,1.503-2.895,2.196-4.405
				C42.774,86.142,43.311,84.642,43.762,82.979 M43.218,81.006c-0.517,2.324-1.161,4.303-1.989,6.105
				c-0.84,1.83-1.782,3.618-2.695,5.35c-0.086,0.157-0.167,0.316-0.248,0.473h16.726L43.218,81.006L43.218,81.006z"/>
		</g>
		<g>
			<path fill="#FD3B3B" d="M19.637,58.32c5.185,5.24,10.289,10.403,15.46,15.669c-0.337,5.164-1.849,9.891-4.499,14.056
				c-0.73,1.149-1.599,2.238-2.442,3.295l-0.469,0.595c-5.306,0.011-10.608,0.015-15.909,0.015l-5.922-0.007
				C13.139,81.91,17.768,70.618,19.637,58.32 M18.925,56.18c-1.716,13.578-6.772,25.924-15.061,36.76l7.912,0.01
				c5.464,0,10.928-0.004,16.396-0.016l0.769-0.975c0.909-1.139,1.763-2.215,2.501-3.379c2.819-4.43,4.392-9.469,4.679-14.975
				C30.37,67.748,24.646,61.96,18.925,56.18L18.925,56.18z"/>
		</g>
	</g>
	<g>
		<path fill="#FD3B3B" d="M91.727,101.084c-2.303,3.723-3.947,7.691-4.912,11.85l-11.697-11.85H91.727z"/>
		<path fill="#FD3B3B" d="M104.9,131.596c-3.59-3.631-7.178-7.268-10.785-10.886c-0.232-0.231-0.248-0.312-0.232-0.579
			c0.43-6.746,2.838-12.877,7.16-18.223c0.553-0.678,0.964-0.881,1.771-0.881v-1.223l0,0l0.031,1.223
			c4.158,0.031,8.317,0.039,12.479,0.039l10.814-0.006c-8.393,10.947-13.341,23.031-15.068,36.799L104.9,131.596z"/>
		<path fill="#FD3B3B" d="M61.031,59.698c-4.656,4.282-10.105,6.901-16.199,7.786c-0.896,0.13-1.887,0.23-3.013,0.307
			c-5.736-5.775-11.457-11.56-17.197-17.375c13.456-1.755,25.671-6.871,36.366-15.243v1.936
			C60.988,44.636,60.988,52.162,61.031,59.698z"/>
		<path fill="#FD3B3B" d="M43.222,113.13c-0.988-4.272-2.642-8.302-4.944-12.026h16.831L43.222,113.13z"/>
		<path fill="#FD3B3B" d="M60.988,2.45c0,7.297-0.004,14.595-0.055,22.035c-7.084,6.773-15.283,11.78-24.373,14.88
			c-5.581,1.902-11.317,3.019-17.049,3.324c-0.295,0.016-0.598,0.051-0.905,0.086c-0.586,0.064-1.254,0.124-1.565,0.004
			c-0.303-0.118-0.672-0.56-1.033-0.986c-0.217-0.257-0.439-0.514-0.668-0.746L0.012,25.554C22.867,23.451,43.355,14.866,60.988,0
			V2.45z"/>
		<path fill="#FD3B3B" d="M7.779,160.607c3.08-3.112,6.159-6.225,9.251-9.315c0.031-0.03,0.116-0.069,0.163-0.079
			c8.074,0.188,15.927,1.848,23.349,4.924c7.541,3.124,14.414,7.646,20.431,13.436c0.016,6.937,0.012,13.871,0.012,20.809v3.607
			C43.363,179.137,22.875,170.557,0,168.452L7.779,160.607z"/>
	</g>
</g>
</svg>
